<?xml version="1.0" ?>
<!DOCTYPE svg  PUBLIC '-//W3C//DTD SVG 1.1//EN'  'http://www.w3.org/Graphics/SVG/1.1/DTD/svg11.dtd'>
<!-- Uploaded to: SVG Repo, www.svgrepo.com, Generator: SVG Repo Mixer Tools -->
<svg fill="#000000" width="800px" height="800px" viewBox="0 0 512 512" version="1.1" xml:space="preserve" xmlns="http://www.w3.org/2000/svg" xmlns:xlink="http://www.w3.org/1999/xlink">
<g id="_x31_92_x2C__Code_x2C__coding_x2C__doc_x2C__programming_x2C__script">
<g>
<path d="M379.309,138.412h75.868l-75.868-75.866V138.412z M460.929,146.549H375.24    c-2.249,0-4.067-1.819-4.067-4.068V56.758h-2.348H126.143v368.421v19.909h334.786V146.549z M103.093,40.354v380.658h14.947V52.723    v-0.099v-0.132l0,0v-0.1l0,0v-0.1l0,0l0.066-0.396l0,0c0.396-1.852,2.018-3.24,4.001-3.24l242.152,0.032l-0.495-8.302    C276.883,40.387,190.006,40.354,103.093,40.354z M159.743,103.225c-2.25,0-4.067-1.819-4.067-4.068    c0-2.216,1.818-4.068,4.067-4.068h83.474c2.25,0,4.067,1.853,4.067,4.068c0,2.249-1.818,4.068-4.067,4.068H159.743z     M287.699,103.225c-2.249,0-4.067-1.819-4.067-4.068c0-2.216,1.818-4.068,4.067-4.068h36.246c2.25,0,4.068,1.853,4.068,4.068    c0,2.249-1.818,4.068-4.068,4.068H287.699z M159.743,129.582c-2.25,0-4.067-1.818-4.067-4.067c0-2.216,1.818-4.034,4.067-4.034    h83.474c2.25,0,4.067,1.818,4.067,4.034c0,2.249-1.818,4.067-4.067,4.067H159.743z M266.832,129.582    c-2.25,0-4.067-1.818-4.067-4.067c0-2.216,1.817-4.034,4.067-4.034h57.113c2.25,0,4.068,1.818,4.068,4.034    c0,2.249-1.818,4.067-4.068,4.067H266.832z M159.743,174.064c-2.25,0-4.067-1.819-4.067-4.068c0-2.216,1.818-4.067,4.067-4.067    h83.474c2.25,0,4.067,1.852,4.067,4.067c0,2.249-1.818,4.068-4.067,4.068H159.743z M303.608,174.064    c-2.219,0-4.068-1.819-4.068-4.068c0-2.216,1.85-4.067,4.068-4.067h87.31c2.249,0,4.066,1.852,4.066,4.067    c0,2.249-1.817,4.068-4.066,4.068H303.608z M159.743,209.22c-2.25,0-4.067-1.819-4.067-4.067c0-2.217,1.818-4.035,4.067-4.035    h83.474c2.25,0,4.067,1.818,4.067,4.035c0,2.248-1.818,4.067-4.067,4.067H159.743z M266.832,209.22    c-2.25,0-4.067-1.819-4.067-4.067c0-2.217,1.817-4.035,4.067-4.035h71.4c2.215,0,4.036,1.818,4.036,4.035    c0,2.248-1.821,4.067-4.036,4.067H266.832z M390.918,236.271c2.249,0,4.066,1.82,4.066,4.035c0,2.25-1.817,4.068-4.066,4.068    h-83.475c-2.218,0-4.035-1.818-4.035-4.068c0-2.215,1.817-4.035,4.035-4.035H390.918z M218.513,236.271    c2.214,0,4.067,1.82,4.067,4.035c0,2.25-1.853,4.068-4.067,4.068h-58.77c-2.25,0-4.067-1.818-4.067-4.068    c0-2.215,1.818-4.035,4.067-4.035H218.513z M159.743,279.53c-2.25,0-4.067-1.819-4.067-4.067c0-2.216,1.818-4.068,4.067-4.068    h83.474c2.25,0,4.067,1.853,4.067,4.068c0,2.248-1.818,4.067-4.067,4.067H159.743z M266.832,279.53    c-2.25,0-4.067-1.819-4.067-4.067c0-2.216,1.817-4.068,4.067-4.068h55.461c2.25,0,4.067,1.853,4.067,4.068    c0,2.248-1.817,4.067-4.067,4.067H266.832z M429.378,306.551c2.218,0,4.067,1.852,4.067,4.067c0,2.249-1.85,4.067-4.067,4.067    h-83.474c-2.246,0-4.067-1.818-4.067-4.067c0-2.216,1.821-4.067,4.067-4.067H429.378z M322.293,306.551    c2.25,0,4.067,1.852,4.067,4.067c0,2.249-1.817,4.067-4.067,4.067h-82.382c-2.25,0-4.067-1.818-4.067-4.067    c0-2.216,1.818-4.067,4.067-4.067H322.293z M209.715,306.551c2.25,0,4.068,1.852,4.068,4.067c0,2.249-1.818,4.067-4.068,4.067    h-49.972c-2.25,0-4.067-1.818-4.067-4.067c0-2.216,1.818-4.067,4.067-4.067H209.715z M283.302,236.271    c2.246,0,4.067,1.82,4.067,4.035c0,2.25-1.821,4.068-4.067,4.068h-29.371c-2.246,0-4.067-1.818-4.067-4.068    c0-2.215,1.821-4.035,4.067-4.035H283.302z M390.918,414.232c2.249,0,4.066,1.818,4.066,4.068c0,2.248-1.817,4.067-4.066,4.067    h-83.475c-2.218,0-4.035-1.819-4.035-4.067c0-2.25,1.817-4.068,4.035-4.068H390.918z M199.264,414.232    c2.25,0,4.067,1.818,4.067,4.068c0,2.248-1.818,4.067-4.067,4.067h-39.521c-2.25,0-4.067-1.819-4.067-4.067    c0-2.25,1.818-4.068,4.067-4.068H199.264z M159.743,387.213c-2.25,0-4.067-1.819-4.067-4.068c0-2.248,1.818-4.068,4.067-4.068    h83.474c2.25,0,4.067,1.82,4.067,4.068c0,2.249-1.818,4.068-4.067,4.068H159.743z M266.832,387.213    c-2.25,0-4.067-1.819-4.067-4.068c0-2.248,1.817-4.068,4.067-4.068h55.461c2.25,0,4.067,1.82,4.067,4.068    c0,2.249-1.817,4.068-4.067,4.068H266.832z M159.743,352.057c-2.25,0-4.067-1.818-4.067-4.067s1.818-4.067,4.067-4.067h83.474    c2.25,0,4.067,1.818,4.067,4.067s-1.818,4.067-4.067,4.067H159.743z M266.832,352.057c-2.25,0-4.067-1.818-4.067-4.067    s1.817-4.067,4.067-4.067h82.382c2.215,0,4.032,1.818,4.032,4.067s-1.817,4.067-4.032,4.067H266.832z M379.406,352.057    c-2.246,0-4.067-1.818-4.067-4.067s1.821-4.067,4.067-4.067h49.972c2.218,0,4.067,1.818,4.067,4.067s-1.85,4.067-4.067,4.067    H379.406z M283.302,414.232c2.246,0,4.067,1.818,4.067,4.068c0,2.248-1.821,4.067-4.067,4.067h-29.371    c-2.246,0-4.067-1.819-4.067-4.067c0-2.25,1.821-4.068,4.067-4.068H283.302z M53.121,469.925c-2.25,0-4.067-1.817-4.067-4.067    c0-2.248,1.818-4.067,4.067-4.067h327.71c2.246,0,4.067,1.819,4.067,4.067c0,2.25-1.821,4.067-4.067,4.067H53.121z     M245.003,485.999c-2.214,0-4.036-1.82-4.036-4.068c0-2.249,1.821-4.068,4.036-4.068h226.809c2.25,0,4.067,1.819,4.067,4.068    c0,2.248-1.817,4.068-4.067,4.068H245.003z M40.188,485.502c-2.214,0-4.067-1.818-4.067-4.067c0-2.216,1.853-4.067,4.067-4.067    h107.485c2.215,0,4.068,1.852,4.068,4.067c0,2.249-1.853,4.067-4.068,4.067H40.188z M94.958,406.659V36.32v-0.1l0.031-0.1l0,0    v-0.1l0,0V35.89l0,0l0.067-0.397l0,0c0.396-1.852,2.018-3.24,3.969-3.24l251.743,0.033l-0.364-6.251L81.994,26.002v380.657H94.958    z" style="fill-rule:evenodd;clip-rule:evenodd;"/>
</g>
</g>
<g id="Layer_1"/>
</svg>